<svg width="76" height="629" viewBox="0 0 76 629" fill="none" xmlns="http://www.w3.org/2000/svg">
<g clip-path="url(#clip0_118_5512)">
<path d="M55.8599 313.94C55.8573 316.325 55.385 318.686 54.4699 320.888C53.5549 323.09 52.215 325.091 50.5269 326.775C48.8387 328.46 46.8353 329.795 44.631 330.705C42.4267 331.616 40.0647 332.083 37.6799 332.08V628.57L74.3699 324.72C75.664 319.198 75.6908 313.455 74.4485 307.922C73.2061 302.388 70.7268 297.208 67.1966 292.77C63.6663 288.331 59.1768 284.75 54.0649 282.294C48.9529 279.838 43.3512 278.572 37.6799 278.59V295.8C40.0647 295.797 42.4267 296.265 44.631 297.175C46.8353 298.085 48.8387 299.42 50.5269 301.105C52.215 302.789 53.5549 304.79 54.4699 306.992C55.385 309.194 55.8573 311.555 55.8599 313.94Z" fill="#D8E9F2"/>
<path d="M0 316.18C0.00494336 319.052 0.340485 321.914 1 324.71L37.68 628.58V332.08C32.869 332.08 28.255 330.169 24.8531 326.767C21.4512 323.365 19.54 318.751 19.54 313.94C19.54 309.129 21.4512 304.515 24.8531 301.113C28.255 297.711 32.869 295.8 37.68 295.8V278.59C27.699 278.579 18.1224 282.533 11.0563 289.583C3.99023 296.632 0.0132529 306.199 0 316.18Z" fill="#6FB9EC"/>
<path d="M19.5 314.64C19.5053 309.823 21.4233 305.205 24.8325 301.801C28.2416 298.398 32.8627 296.487 37.68 296.49V0L0.999989 303.86C-0.295595 309.381 -0.323959 315.125 0.917025 320.659C2.15801 326.193 4.63612 331.374 8.16543 335.813C11.6947 340.253 16.1836 343.836 21.2952 346.293C26.4069 348.75 32.0085 350.017 37.68 350V332.78C35.2952 332.783 32.9332 332.316 30.7289 331.405C28.5247 330.495 26.5212 329.16 24.8331 327.475C23.1449 325.791 21.805 323.79 20.89 321.588C19.9749 319.386 19.5026 317.025 19.5 314.64Z" fill="#B01750"/>
<path d="M75.3599 312.39C75.3544 309.518 75.0188 306.656 74.3599 303.86L37.6799 0V296.49C40.0986 296.433 42.5042 296.861 44.7554 297.747C47.0065 298.633 49.0577 299.961 50.7884 301.651C52.5191 303.342 53.8944 305.361 54.8333 307.591C55.7722 309.821 56.2559 312.216 56.2559 314.635C56.2559 317.054 55.7722 319.449 54.8333 321.679C53.8944 323.909 52.5191 325.928 50.7884 327.619C49.0577 329.309 47.0065 330.637 44.7554 331.523C42.5042 332.409 40.0986 332.837 37.6799 332.78V350C42.6237 350.005 47.5201 349.037 52.0895 347.149C56.6589 345.262 60.8116 342.493 64.3107 339C67.8097 335.508 70.5865 331.36 72.4823 326.794C74.3782 322.228 75.356 317.334 75.3599 312.39Z" fill="#CF1A5D"/>
<path d="M5 34.6799V80.8199C5.00084 81.2458 5.144 81.6592 5.40672 81.9944C5.66944 82.3296 6.03665 82.5674 6.45 82.6699L13.93 84.5399L21.57 80.6899L30.49 88.6899L37 90.3199C37.1501 90.3595 37.3047 90.3796 37.46 90.3799C37.6186 90.3803 37.7766 90.3601 37.93 90.3199L68.52 82.6699C68.9398 82.5748 69.3148 82.3399 69.5837 82.0039C69.8525 81.6678 69.9993 81.2503 70 80.8199V34.6799L37.5 42.8099L5 34.6799Z" fill="#505050"/>
<path d="M37.5 42.8099V90.3799C37.6586 90.3803 37.8166 90.3601 37.97 90.3199L68.56 82.6699C68.9723 82.567 69.3383 82.3289 69.5993 81.9935C69.8604 81.6581 70.0015 81.2449 70 80.8199V34.6799L37.5 42.8099Z" fill="#373737"/>
<path d="M5 39.88V51.47L37 59.47C37.3064 59.5366 37.6236 59.5366 37.93 59.47L69.93 51.47V39.88L37.5 48L5 39.88Z" fill="#FFE132"/>
<path d="M38 59.48L70 51.48V39.88L37.5 48V59.53C37.668 59.5307 37.8355 59.514 38 59.48Z" fill="#FAC80F"/>
<path d="M37.4999 44.2399C37.3447 44.2396 37.1901 44.2195 37.0399 44.1799L6.44992 36.5299C6.03935 36.4245 5.67551 36.1855 5.4157 35.8506C5.1559 35.5157 5.01489 35.1038 5.01489 34.6799C5.01489 34.2561 5.1559 33.8442 5.4157 33.5093C5.67551 33.1743 6.03935 32.9353 6.44992 32.8299L36.9999 25.1799C37.3047 25.0999 37.6251 25.0999 37.9299 25.1799L68.5199 32.8299C68.9305 32.9353 69.2943 33.1743 69.5541 33.5093C69.8139 33.8442 69.9549 34.2561 69.9549 34.6799C69.9549 35.1038 69.8139 35.5157 69.5541 35.8506C69.2943 36.1855 68.9305 36.4245 68.5199 36.5299L37.9999 44.1799C37.8368 44.2228 37.6685 44.2429 37.4999 44.2399Z" fill="#646464"/>
<path d="M38 44.18L68.59 36.53C69.0006 36.4246 69.3644 36.1856 69.6242 35.8507C69.884 35.5157 70.0251 35.1039 70.0251 34.68C70.0251 34.2561 69.884 33.8443 69.6242 33.5093C69.3644 33.1744 69.0006 32.9354 68.59 32.83L38 25.18C37.8466 25.1398 37.6886 25.1197 37.53 25.12V44.24C37.6886 44.2403 37.8466 44.2202 38 44.18Z" fill="#505050"/>
<path d="M29.0499 67.8099L16.2999 64.6199C16.018 64.55 15.7238 64.5452 15.4397 64.6061C15.1557 64.667 14.8893 64.7918 14.6607 64.9712C14.4322 65.1505 14.2476 65.3797 14.121 65.6411C13.9943 65.9026 13.929 66.1894 13.9299 66.4799V84.5399L30.4899 88.6799V69.6799C30.4941 69.252 30.3545 68.835 30.0933 68.4959C29.8322 68.1568 29.4648 67.9152 29.0499 67.8099Z" fill="#FFE132"/>
<path d="M17.75 85.4999L26.67 87.7299V71.1599L17.75 68.9299V85.4999Z" fill="#FAC80F"/>
<path d="M58.9999 313.947C59.0099 318.103 57.8453 322.168 55.6538 325.629C53.4622 329.089 50.3421 331.789 46.6885 333.386C43.0348 334.984 39.0119 335.407 35.129 334.603C31.2461 333.799 27.6777 331.803 24.8757 328.868C22.0736 325.933 20.1638 322.191 19.388 318.116C18.6122 314.041 19.0053 309.816 20.5176 305.976C22.0299 302.136 24.5933 298.853 27.8833 296.543C31.1734 294.233 35.0422 293 38.9999 293C41.6233 292.996 44.2217 293.534 46.6467 294.585C49.0717 295.636 51.2758 297.178 53.1332 299.123C54.9905 301.068 56.4645 303.379 57.4712 305.922C58.4778 308.466 58.9973 311.193 58.9999 313.947Z" fill="#919395"/>
<path d="M38.5 326C44.8513 326 50 320.627 50 314C50 307.373 44.8513 302 38.5 302C32.1487 302 27 307.373 27 314C27 320.627 32.1487 326 38.5 326Z" fill="#CFD1D2"/>
<path d="M38.5 324C43.7467 324 48 319.523 48 314C48 308.477 43.7467 304 38.5 304C33.2533 304 29 308.477 29 314C29 319.523 33.2533 324 38.5 324Z" fill="#A5A6A9"/>
<path d="M46.9999 313.469C47.0061 315.151 46.5128 316.798 45.5825 318.2C44.6523 319.602 43.3269 320.696 41.7743 321.344C40.2217 321.992 38.5116 322.165 36.8607 321.84C35.2099 321.516 33.6924 320.709 32.5006 319.521C31.3087 318.334 30.4961 316.819 30.1656 315.17C29.8351 313.52 30.0016 311.809 30.644 310.254C31.2865 308.699 32.3759 307.37 33.7744 306.435C35.1729 305.499 36.8175 305 38.4999 305C40.7489 305 42.9063 305.891 44.4994 307.479C46.0926 309.066 46.9917 311.22 46.9999 313.469Z" fill="#1A1A1A"/>
<path d="M44 313.979C44.0037 315.167 43.6844 316.329 43.0823 317.318C42.4803 318.308 41.6226 319.08 40.6179 319.537C39.6133 319.995 38.5068 320.116 37.4387 319.887C36.3705 319.658 35.3887 319.088 34.6177 318.25C33.8466 317.412 33.3209 316.343 33.1071 315.178C32.8933 314.014 33.0011 312.806 33.4168 311.709C33.8325 310.611 34.5375 309.673 35.4424 309.013C36.3472 308.352 37.4114 308 38.5 308C39.221 307.999 39.9352 308.152 40.6018 308.452C41.2684 308.752 41.8744 309.192 42.3851 309.747C42.8958 310.302 43.3013 310.962 43.5784 311.688C43.8555 312.414 43.9987 313.193 44 313.979Z" fill="#14294C"/>
</g>
<defs>
<clipPath id="clip0_118_5512">
<rect width="75.36" height="628.58" fill="white"/>
</clipPath>
</defs>
</svg>
